<?xml version="1.0" standalone="no"?>
<svg xmlns="http://www.w3.org/2000/svg" viewBox="0 0 135.672 36" width="135.672" height="36">
    <g fill="#9D71E8" color="#9D71E8" transform="translate(0 6.956239999999999) scale(0.2800001)">
        <svg width="100.0" height="78.884" x="0.0" y="0.0" viewBox="0 0 100 78.884">
            <path fill="currentColor" d="M87.499,53.748l6.302,6.301L100,53.851L69.706,23.558l-7.86,7.86l-12.299-12.3v-8.994h12.871V0H47.517  v10.125h0.006v8.994L0,66.641l9.432,9.432l8.519-8.52l7.239,7.238l11.562-11.562l15.656,15.655l13.438-13.437l5.92,5.921  l5.814-5.815l10.287,10.29l9.201-9.202L85.837,55.409L87.499,53.748z M69.706,26.435l0.002,0.002v12.843l-6.424-6.423L69.706,26.435  z M49.552,2.034h10.835V8.09H49.552V2.034z M25.19,71.928l-7.239-7.237l-8.519,8.52l-6.571-6.57l45.674-45.673V72.15L36.753,60.367  L25.19,71.928z"></path>
        </svg>
    </g>
    <path fill="#9D71E8" fill-rule="nonzero" d="M8.78 18.07Q6.29 18.07 4.28 16.97Q2.28 15.86 1.14 13.91Q0 11.95 0 9.53L0 9.53Q0 7.10 1.14 5.15Q2.28 3.19 4.30 2.09Q6.31 0.98 8.81 0.98L8.81 0.98Q10.68 0.98 12.26 1.61Q13.85 2.23 14.95 3.43L14.95 3.43L13.82 4.56Q11.86 2.57 8.86 2.57L8.86 2.57Q6.86 2.57 5.23 3.48Q3.60 4.39 2.68 5.98Q1.75 7.56 1.75 9.53L1.75 9.53Q1.75 11.50 2.68 13.08Q3.60 14.66 5.23 15.58Q6.86 16.49 8.86 16.49L8.86 16.49Q11.88 16.49 13.82 14.47L13.82 14.47L14.95 15.60Q13.85 16.80 12.25 17.44Q10.66 18.07 8.78 18.07L8.78 18.07ZM21.94 18.05Q20.23 18.05 19.31 17.09Q18.38 16.13 18.38 14.42L18.38 14.42L18.38 0.12L20.09 0.12L20.09 14.28Q20.09 15.41 20.62 16.00Q21.14 16.58 22.20 16.58L22.20 16.58Q22.87 16.58 23.35 16.37L23.35 16.37L23.47 17.78Q22.73 18.05 21.94 18.05L21.94 18.05ZM25.80 17.93L25.80 5.30L27.50 5.30L27.50 17.93L25.80 17.93ZM26.66 2.54Q26.14 2.54 25.78 2.18Q25.42 1.82 25.42 1.32L25.42 1.32Q25.42 0.84 25.78 0.48Q26.14 0.12 26.66 0.12L26.66 0.12Q27.19 0.12 27.55 0.47Q27.91 0.82 27.91 1.30L27.91 1.30Q27.91 1.82 27.55 2.18Q27.19 2.54 26.66 2.54L26.66 2.54ZM48 5.21Q50.38 5.21 51.73 6.58Q53.09 7.94 53.09 10.61L53.09 10.61L53.09 17.93L51.38 17.93L51.38 10.78Q51.38 8.81 50.44 7.78Q49.49 6.74 47.76 6.74L47.76 6.74Q45.79 6.74 44.66 7.96Q43.54 9.17 43.54 11.30L43.54 11.30L43.54 17.93L41.83 17.93L41.83 10.78Q41.83 8.81 40.88 7.78Q39.94 6.74 38.18 6.74L38.18 6.74Q36.24 6.74 35.10 7.96Q33.96 9.17 33.96 11.30L33.96 11.30L33.96 17.93L32.26 17.93L32.26 5.30L33.89 5.30L33.89 7.61Q34.56 6.46 35.76 5.83Q36.96 5.21 38.52 5.21L38.52 5.21Q40.10 5.21 41.27 5.88Q42.43 6.55 43.01 7.87L43.01 7.87Q43.70 6.62 45.01 5.92Q46.32 5.21 48 5.21L48 5.21ZM64.22 5.21Q66 5.21 67.44 6.01Q68.88 6.82 69.70 8.28Q70.51 9.74 70.51 11.62L70.51 11.62Q70.51 13.49 69.70 14.95Q68.88 16.42 67.44 17.23Q66 18.05 64.22 18.05L64.22 18.05Q62.64 18.05 61.38 17.38Q60.12 16.70 59.35 15.43L59.35 15.43L59.35 17.93L57.72 17.93L57.72 0.12L59.42 0.12L59.42 7.70Q60.22 6.48 61.45 5.84Q62.69 5.21 64.22 5.21L64.22 5.21ZM64.10 16.54Q65.42 16.54 66.50 15.92Q67.58 15.31 68.20 14.18Q68.81 13.06 68.81 11.62L68.81 11.62Q68.81 10.18 68.20 9.05Q67.58 7.92 66.50 7.31Q65.42 6.70 64.10 6.70L64.10 6.70Q62.76 6.70 61.69 7.31Q60.62 7.92 60.01 9.05Q59.40 10.18 59.40 11.62L59.40 11.62Q59.40 13.06 60.01 14.18Q60.62 15.31 61.69 15.92Q62.76 16.54 64.10 16.54L64.10 16.54ZM73.99 17.93L73.99 5.30L75.70 5.30L75.70 17.93L73.99 17.93ZM74.86 2.54Q74.33 2.54 73.97 2.18Q73.61 1.82 73.61 1.32L73.61 1.32Q73.61 0.84 73.97 0.48Q74.33 0.12 74.86 0.12L74.86 0.12Q75.38 0.12 75.74 0.47Q76.10 0.82 76.10 1.30L76.10 1.30Q76.10 1.82 75.74 2.18Q75.38 2.54 74.86 2.54L74.86 2.54ZM84.34 1.44Q83.23 1.44 82.67 2.04Q82.10 2.64 82.10 3.82L82.10 3.82L82.10 5.30L85.99 5.30L85.99 6.74L82.15 6.74L82.15 17.93L80.45 17.93L80.45 3.74Q80.45 2.02 81.44 1.01Q82.44 0 84.26 0L84.26 0Q84.98 0 85.66 0.20Q86.33 0.41 86.78 0.79L86.78 0.79L86.21 2.06Q85.46 1.44 84.34 1.44L84.34 1.44ZM97.97 5.30L99.67 5.30L99.67 16.39Q99.67 19.61 98.21 21.16Q96.74 22.70 93.79 22.70L93.79 22.70Q92.14 22.70 90.66 22.19Q89.18 21.67 88.27 20.76L88.27 20.76L89.14 19.46Q89.95 20.28 91.15 20.74Q92.35 21.19 93.72 21.19L93.72 21.19Q95.90 21.19 96.94 20.08Q97.97 18.96 97.97 16.61L97.97 16.61L97.97 15.14Q97.30 16.25 96.13 16.85Q94.97 17.45 93.50 17.45L93.50 17.45Q91.03 17.45 89.60 16.07Q88.18 14.69 88.18 12.02L88.18 12.02L88.18 5.30L89.88 5.30L89.88 11.86Q89.88 13.85 90.86 14.88Q91.85 15.91 93.67 15.91L93.67 15.91Q95.66 15.91 96.82 14.70Q97.97 13.49 97.97 11.33L97.97 11.33L97.97 5.30Z" transform="translate(36, 9.036)"></path>
</svg>