<?xml version="1.0" standalone="no"?>
<svg xmlns="http://www.w3.org/2000/svg" viewBox="0 0 30 36" width="36" height="30">
    <g fill="#9D71E8" color="#9D71E8" transform="translate(0 6.956239999999999) scale(0.2800001)">
        <svg width="100.0" height="78.884" x="0.0" y="0.0" viewBox="0 0 100 78.884">
            <path fill="currentColor" d="M87.499,53.748l6.302,6.301L100,53.851L69.706,23.558l-7.86,7.86l-12.299-12.3v-8.994h12.871V0H47.517  v10.125h0.006v8.994L0,66.641l9.432,9.432l8.519-8.52l7.239,7.238l11.562-11.562l15.656,15.655l13.438-13.437l5.92,5.921  l5.814-5.815l10.287,10.29l9.201-9.202L85.837,55.409L87.499,53.748z M69.706,26.435l0.002,0.002v12.843l-6.424-6.423L69.706,26.435  z M49.552,2.034h10.835V8.09H49.552V2.034z M25.19,71.928l-7.239-7.237l-8.519,8.52l-6.571-6.57l45.674-45.673V72.15L36.753,60.367  L25.19,71.928z"></path>
        </svg>
    </g>
</svg>